<svg width="40" height="45" viewBox="0 0 40 45" fill="none" xmlns="http://www.w3.org/2000/svg">
<path d="M0 0H30C35.5228 0 40 4.47715 40 10V35C40 40.5228 35.5228 45 30 45H0V0Z" fill="black" fill-opacity="0.2"/>
<path opacity="0.5" d="M21.5625 28.9375C21.2988 28.9375 21.0645 28.8496 20.8887 28.6738L15.2637 23.0488C14.8828 22.6973 14.8828 22.082 15.2637 21.7305L20.8887 16.1055C21.2402 15.7246 21.8555 15.7246 22.207 16.1055C22.5879 16.457 22.5879 17.0723 22.207 17.4238L17.2559 22.375L22.207 27.3555C22.5879 27.707 22.5879 28.3223 22.207 28.6738C22.0312 28.8496 21.7969 28.9375 21.5625 28.9375Z" fill="white"/>
</svg>
