<svg width="40" height="45" viewBox="0 0 40 45" fill="none" xmlns="http://www.w3.org/2000/svg">
<path d="M40 0H10C4.47715 0 0 4.47715 0 10V35C0 40.5228 4.47715 45 10 45H40V0Z" fill="black" fill-opacity="0.2"/>
<path opacity="0.5" d="M18.4375 28.9375C18.7012 28.9375 18.9355 28.8496 19.1113 28.6738L24.7363 23.0488C25.1172 22.6973 25.1172 22.082 24.7363 21.7305L19.1113 16.1055C18.7598 15.7246 18.1445 15.7246 17.793 16.1055C17.4121 16.457 17.4121 17.0723 17.793 17.4238L22.7441 22.375L17.793 27.3555C17.4121 27.707 17.4121 28.3223 17.793 28.6738C17.9688 28.8496 18.2031 28.9375 18.4375 28.9375Z" fill="white"/>
</svg>
